<?xml version="1.0" standalone="no"?>
<!DOCTYPE svg PUBLIC "-//W3C//DTD SVG 20010904//EN"
 "http://www.w3.org/TR/2001/REC-SVG-20010904/DTD/svg10.dtd">
<svg version="1.0" xmlns="http://www.w3.org/2000/svg"
 width="200.000000pt" height="200.000000pt" viewBox="0 0 200.000000 200.000000"
 preserveAspectRatio="xMidYMid meet">

<g transform="translate(0.000000,200.000000) scale(0.100000,-0.100000)"
fill="#000000" stroke="none">
<path d="M1157 1563 c-11 -37 -51 -403 -45 -408 3 -4 39 -11 80 -17 40 -6 76
-16 80 -22 4 -6 10 -39 14 -73 21 -196 -102 -409 -284 -494 -60 -28 -72 -38
-72 -58 0 -23 1 -24 64 -17 330 34 608 318 632 646 4 53 1 87 -9 115 -13 37
-13 44 9 104 13 35 24 67 24 71 0 5 -105 43 -232 86 -128 42 -238 79 -245 81
-6 3 -14 -4 -16 -14z"/>
<path d="M912 1510 c-192 -51 -354 -173 -450 -341 -72 -127 -110 -319 -79
-404 13 -37 12 -44 -9 -103 -13 -34 -24 -66 -24 -71 0 -11 481 -173 489 -166
3 3 17 100 31 215 l26 209 -30 5 c-17 3 -55 8 -84 12 -63 8 -68 17 -66 149 1
67 7 105 24 150 51 132 141 231 262 288 55 25 68 36 68 54 0 20 -5 23 -42 22
-24 0 -76 -9 -116 -19z"/>
</g>
</svg>
